<svg xmlns="http://www.w3.org/2000/svg" fill="none" viewBox="0 0 14 14"><g id="customer-support-1--customer-headset-help-microphone-phone-support"><path id="Vector" stroke="#000" stroke-linecap="round" stroke-linejoin="round" d="M3 7.00002v-2.63c.00781-.51697.11755-1.02731.32294-1.5018.20538-.47448.50238-.90377.87396-1.26328.37158-.3595.81045-.642155 1.29146-.831758C5.96936.58358 6.48306.490753 7 .500021 7.51694.490753 8.03064.58358 8.51164.773182c.48101.189603.91988.472258 1.29146.831758.3716.35951.6686.7888.874 1.26328.2053.47449.3151.98483.3229 1.5018v2.63"></path><path id="Vector_2" stroke="#000" stroke-linecap="round" stroke-linejoin="round" d="M1.5 5.5h1c.13261 0 .25979.05268.35355.14645C2.94732 5.74021 3 5.86739 3 6v3c0 .13261-.05268.25979-.14645.35355C2.75979 9.44732 2.63261 9.5 2.5 9.5h-1c-.26522 0-.51957-.10536-.707107-.29289C.605357 9.01957.5 8.76522.5 8.5v-2c0-.26522.105357-.51957.292893-.70711C.98043 5.60536 1.23478 5.5 1.5 5.5v0Z"></path><path id="Vector_3" stroke="#000" stroke-linecap="round" stroke-linejoin="round" d="M12.5 9.5h-1c-.1326 0-.2598-.05268-.3536-.14645C11.0527 9.25979 11 9.13261 11 9V6c0-.13261.0527-.25979.1464-.35355.0938-.09377.221-.14645.3536-.14645h1c.2652 0 .5196.10536.7071.29289.1875.18754.2929.44189.2929.70711v2c0 .26522-.1054.51957-.2929.70711-.1875.18753-.4419.29289-.7071.29289v0Z"></path><path id="Vector_4" stroke="#000" stroke-linecap="round" stroke-linejoin="round" d="M9 12.25c.53043 0 1.0391-.2107 1.4142-.5858S11 10.7804 11 10.25V8"></path><path id="Vector_5" stroke="#000" stroke-linecap="round" stroke-linejoin="round" d="M9 12.25c0 .3315-.1317.6495-.36612.8839-.23442.2344-.55236.3661-.88388.3661h-1.5c-.33152 0-.64946-.1317-.88388-.3661C5.1317 12.8995 5 12.5815 5 12.25s.1317-.6495.36612-.8839C5.60054 11.1317 5.91848 11 6.25 11h1.5c.33152 0 .64946.1317.88388.3661.23442.2344.36612.5524.36612.8839Z"></path></g></svg>