<svg width="179" height="133" viewBox="0 0 179 133" fill="none" xmlns="http://www.w3.org/2000/svg">
<g clip-path="url(#clip0_127_23058)">
<rect width="179" height="133" fill="white"/>
<g clip-path="url(#clip1_127_23058)">
<rect width="179" height="179" transform="translate(0 -46)" fill="#EBFAFF"/>
<path d="M112.331 161.318C147.405 161.318 175.838 132.885 175.838 97.811C175.838 62.7368 147.405 34.3036 112.331 34.3036C77.2567 34.3036 48.8235 62.7368 48.8235 97.811C48.8235 132.885 77.2567 161.318 112.331 161.318Z" fill="#C7F0FF"/>
<path d="M55.8904 126.943C61.2406 137.298 69.3363 145.982 79.2914 152.043C89.2465 158.105 100.677 161.311 112.333 161.311C123.988 161.311 135.419 158.105 145.374 152.043C155.329 145.982 163.425 137.298 168.775 126.943H55.8904Z" fill="#F2DFC2"/>
<path d="M172.793 126.943H52.1292" stroke="#45413C" stroke-width="1.13623" stroke-linecap="round" stroke-linejoin="round"/>
<path d="M141.309 78.06C142.2 77.4773 142.824 76.5648 143.042 75.523C143.261 74.4811 143.058 73.395 142.476 72.5031L142.434 72.438C141.84 71.5286 141.631 70.4206 141.854 69.3574C142.077 68.2943 142.712 67.3631 143.621 66.7684C144.071 66.4739 144.575 66.271 145.104 66.1713C145.633 66.0716 146.176 66.077 146.703 66.1873C147.229 66.2976 147.729 66.5106 148.174 66.814C148.618 67.1175 148.998 67.5056 149.292 67.956L149.389 68.1053C151.146 70.7941 151.763 74.0709 151.105 77.2147C150.446 80.3586 148.566 83.1121 145.877 84.8696L143.442 86.4573L138.953 79.6033L141.309 78.06Z" fill="#FFDA8F" stroke="#45413C" stroke-width="1.13623" stroke-linecap="round" stroke-linejoin="round"/>
<path d="M138.952 79.5976L124.094 89.3087L128.576 96.1664L143.434 86.4553L138.952 79.5976Z" fill="#FF866E" stroke="#45413C" stroke-width="1.13623" stroke-linecap="round" stroke-linejoin="round"/>
<path d="M84.3928 78.0602C83.5025 77.4769 82.8798 76.5643 82.6614 75.5226C82.4429 74.4809 82.6465 73.3951 83.2275 72.5033L83.2687 72.4382C83.5632 71.988 83.7661 71.4842 83.8658 70.9555C83.9655 70.4269 83.96 69.8838 83.8497 69.3573C83.7394 68.8308 83.5265 68.3311 83.223 67.8869C82.9196 67.4428 82.5315 67.0627 82.0811 66.7685C81.631 66.4741 81.1271 66.2712 80.5985 66.1715C80.0699 66.0718 79.5268 66.0773 79.0003 66.1876C78.4737 66.2979 77.9741 66.5108 77.5299 66.8143C77.0857 67.1177 76.7057 67.5057 76.4115 67.9561L76.3147 68.1054C75.4444 69.4367 74.8449 70.9264 74.5505 72.4895C74.256 74.0525 74.2723 75.6582 74.5984 77.215C74.9245 78.7717 75.5541 80.249 76.4511 81.5624C77.3482 82.8758 78.4952 83.9996 79.8266 84.8698L82.2606 86.4574L86.7426 79.6034L84.3928 78.0602Z" fill="#FFDA8F" stroke="#45413C" stroke-width="1.13623" stroke-linecap="round" stroke-linejoin="round"/>
<path d="M86.7435 79.5967L82.2615 86.4543L97.1197 96.1655L101.602 89.3078L86.7435 79.5967Z" fill="#FF866E" stroke="#45413C" stroke-width="1.13623" stroke-linecap="round" stroke-linejoin="round"/>
<path d="M133.64 107.086L141.072 113.104C141.49 113.442 141.971 113.694 142.487 113.847C143.002 113.999 143.543 114.049 144.078 113.992C144.613 113.936 145.132 113.774 145.604 113.517C146.077 113.26 146.494 112.912 146.832 112.494C147.17 112.076 147.423 111.595 147.576 111.079C147.728 110.564 147.778 110.023 147.721 109.488C147.665 108.953 147.504 108.434 147.247 107.962C146.99 107.489 146.642 107.072 146.224 106.734L138.792 100.72L133.64 107.086Z" fill="#FFDA8F" stroke="#45413C" stroke-width="1.13623" stroke-linecap="round" stroke-linejoin="round"/>
<path d="M124.99 89.5527L119.838 95.9224L133.638 107.085L138.791 100.716L124.99 89.5527Z" fill="#FF866E" stroke="#45413C" stroke-width="1.13623" stroke-linecap="round" stroke-linejoin="round"/>
<path d="M92.0554 107.086L84.6267 113.103C83.7817 113.786 82.7 114.106 81.6196 113.992C80.5391 113.877 79.5483 113.338 78.8649 112.494C78.5266 112.076 78.274 111.595 78.1215 111.079C77.9691 110.563 77.9197 110.022 77.9764 109.487C78.033 108.952 78.1944 108.434 78.4515 107.961C78.7086 107.489 79.0562 107.072 79.4746 106.734L86.9034 100.719L92.0554 107.086Z" fill="#FFDA8F" stroke="#45413C" stroke-width="1.13623" stroke-linecap="round" stroke-linejoin="round"/>
<path d="M100.704 89.5525L86.9031 100.715L92.0552 107.085L105.856 95.9221L100.704 89.5525Z" fill="#FF866E" stroke="#45413C" stroke-width="1.13623" stroke-linecap="round" stroke-linejoin="round"/>
<path d="M135.512 81.3498C134.128 79.1276 133.424 76.5493 133.487 73.9321C133.487 55.9913 130.173 42.3483 112.862 42.3483H112.829C95.5234 42.3483 92.2051 55.9944 92.2051 73.9321C92.2684 76.549 91.5654 79.1273 90.1824 81.3498C89.9338 81.7594 89.7876 82.223 89.7562 82.7011C89.7248 83.1793 89.809 83.658 90.0019 84.0966C90.1947 84.5353 90.4905 84.921 90.8641 85.2212C91.2376 85.5213 91.678 85.7269 92.148 85.8207C97.2415 87.0566 102.595 86.6618 107.452 84.6918V78.4205H118.248V84.6966C123.105 86.6664 128.458 87.0613 133.552 85.8255C134.022 85.731 134.462 85.5247 134.835 85.2239C135.209 84.9232 135.504 84.5369 135.697 84.0978C135.889 83.6586 135.973 83.1796 135.941 82.7012C135.909 82.2229 135.762 81.7593 135.512 81.3498Z" fill="#614B44"/>
<path d="M112.83 48.4844H112.863C134.897 48.4844 133.503 74.5653 133.503 74.5653C133.503 74.3573 133.492 74.1478 133.492 73.9303C133.492 55.9894 130.178 42.3464 112.868 42.3464H112.835C95.5288 42.3464 92.2105 55.9926 92.2105 73.9303C92.2105 74.1446 92.2105 74.3542 92.1994 74.5653C92.1946 74.5685 90.7959 48.4844 112.83 48.4844Z" fill="#947063"/>
<path d="M135.512 81.3498C134.128 79.1276 133.424 76.5493 133.487 73.9321C133.487 55.9912 130.173 42.3483 112.862 42.3483H112.829C95.5234 42.3483 92.2051 55.9944 92.2051 73.9321C92.2684 76.549 91.5654 79.1273 90.1824 81.3498C89.9338 81.7594 89.7876 82.223 89.7562 82.7011C89.7248 83.1793 89.809 83.658 90.0019 84.0966C90.1947 84.5353 90.4905 84.921 90.8641 85.2212C91.2376 85.5213 91.678 85.7269 92.148 85.8207C97.2415 87.0566 102.595 86.6618 107.452 84.6918V78.4205H118.248V84.6966C123.105 86.6664 128.458 87.0613 133.552 85.8254C134.022 85.731 134.462 85.5247 134.835 85.2239C135.209 84.9232 135.504 84.5369 135.697 84.0978C135.889 83.6586 135.973 83.1796 135.941 82.7012C135.909 82.2229 135.762 81.7593 135.512 81.3498V81.3498Z" stroke="#45413C" stroke-width="1.13623" stroke-linecap="round" stroke-linejoin="round"/>
<path d="M112.849 46.1583C110.522 46.1599 108.228 46.7124 106.156 47.7707C104.083 48.829 102.291 50.363 100.925 52.2471C104.687 50.6224 108.751 49.8171 112.849 49.8846C116.945 49.817 121.009 50.6223 124.771 52.2471C123.405 50.3628 121.613 48.8287 119.541 47.7704C117.469 46.7121 115.175 46.1596 112.849 46.1583Z" fill="#FF6196" stroke="#45413C" stroke-width="1.13623" stroke-linecap="round" stroke-linejoin="round"/>
<path d="M139.525 87.7543H153.478C154.484 87.7543 155.448 88.1539 156.16 88.8652C156.871 89.5765 157.271 90.5413 157.271 91.5473C157.271 92.5532 156.871 93.518 156.16 94.2293C155.448 94.9406 154.484 95.3402 153.478 95.3402H139.525V87.7543Z" fill="#FFDA8F" stroke="#45413C" stroke-width="1.13623" stroke-linecap="round" stroke-linejoin="round"/>
<path d="M139.528 87.7543H135.392V95.3402H139.528V87.7543Z" fill="#FF866E" stroke="#45413C" stroke-width="1.13623" stroke-linecap="round" stroke-linejoin="round"/>
<path d="M98.4722 123.836V109.899C98.4722 107.481 96.3654 106.325 96.2796 103.22C96.4485 100.681 97.1987 98.2148 98.4722 96.0118H90.3052V86.962H135.395V96.0118H127.225C128.499 98.2148 129.249 100.681 129.418 103.22C129.332 106.325 127.225 107.481 127.225 109.899V123.836H98.4722Z" fill="#FFA694"/>
<path d="M127.227 111.249H98.4729V123.836H127.227V111.249Z" fill="#FF866E"/>
<path d="M135.392 86.9573H90.3052V91.0726H135.392V86.9573Z" fill="#FFCABF"/>
<path d="M98.4722 123.836V109.899C98.4722 107.481 96.3654 106.325 96.2796 103.22C96.4485 100.681 97.1987 98.2148 98.4722 96.0118H90.3052V86.962H135.395V96.0118H127.225C128.499 98.2148 129.249 100.681 129.418 103.22C129.332 106.325 127.225 107.481 127.225 109.899V123.836H98.4722Z" stroke="#45413C" stroke-width="1.13623" stroke-linecap="round" stroke-linejoin="round"/>
<path d="M118.322 90.2802L112.846 93.9319L107.369 90.2802V82.0656H118.322V90.2802Z" fill="#FFDA8F"/>
<path d="M107.369 86.927C109.102 87.6597 110.964 88.0372 112.846 88.0372C114.728 88.0372 116.59 87.6597 118.324 86.927V82.0656H107.369V86.927Z" fill="#FFBE3D"/>
<path d="M118.322 90.2802L112.846 93.9319L107.369 90.2802V82.0656H118.322V90.2802Z" stroke="#45413C" stroke-width="1.13623" stroke-linecap="round" stroke-linejoin="round"/>
<path d="M112.849 93.7842C112.849 93.7842 109.056 101.37 104.504 95.302C99.9522 89.2339 101.47 87.7161 101.47 87.7161C102.86 86.7256 104.396 85.958 106.022 85.4409C107.721 88.6476 110.042 91.4838 112.849 93.7842Z" fill="#FF866E" stroke="#45413C" stroke-width="1.13623" stroke-linecap="round" stroke-linejoin="round"/>
<path d="M112.85 93.7842C112.85 93.7842 116.643 101.37 121.193 95.302C125.743 89.2339 124.227 87.7161 124.227 87.7161C122.838 86.7251 121.303 85.9575 119.677 85.4409C117.977 88.6476 115.656 91.4838 112.85 93.7842Z" fill="#FF866E" stroke="#45413C" stroke-width="1.13623" stroke-linecap="round" stroke-linejoin="round"/>
<path d="M112.848 93.7841V104.404" stroke="#45413C" stroke-width="1.13623" stroke-linecap="round" stroke-linejoin="round"/>
<path d="M86.1685 87.7543H72.2175C71.2116 87.7543 70.2468 88.1539 69.5355 88.8652C68.8242 89.5765 68.4246 90.5413 68.4246 91.5473C68.4246 92.5532 68.8242 93.518 69.5355 94.2293C70.2468 94.9406 71.2116 95.3402 72.2175 95.3402H86.1685V87.7543Z" fill="#FFDA8F" stroke="#45413C" stroke-width="1.13623" stroke-linecap="round" stroke-linejoin="round"/>
<path d="M90.3041 87.7543H86.1682V95.3402H90.3041V87.7543Z" fill="#FF866E" stroke="#45413C" stroke-width="1.13623" stroke-linecap="round" stroke-linejoin="round"/>
<path d="M127.751 66.3712V64.1611C127.61 63.2164 127.306 62.3032 126.854 61.462C122.37 61.462 122.37 59.5441 122.37 55.1859C120.633 57.7913 116.372 58.7138 112.844 58.7693C109.319 58.7138 105.064 57.7913 103.318 55.1859C103.318 59.5441 103.318 61.462 98.8341 61.462C98.3815 62.3032 98.078 63.2164 97.937 64.1611V66.3712C97.1584 66.3891 96.4176 66.7111 95.8733 67.2681C95.3289 67.8252 95.0242 68.5732 95.0242 69.352C95.0242 70.1309 95.3289 70.8789 95.8733 71.4359C96.4176 71.993 97.1584 72.3149 97.937 72.3329C97.999 72.3329 98.0577 72.317 98.1196 72.3139C98.6468 75.841 100.423 79.0617 103.125 81.3896C105.826 83.7176 109.274 84.9981 112.841 84.9981C116.407 84.9981 119.855 83.7176 122.557 81.3896C125.258 79.0617 127.034 75.841 127.562 72.3139C127.624 72.3139 127.681 72.3329 127.744 72.3329C128.523 72.3149 129.264 71.993 129.808 71.4359C130.352 70.8789 130.657 70.1309 130.657 69.352C130.657 68.5732 130.352 67.8252 129.808 67.2681C129.264 66.7111 128.523 66.3891 127.744 66.3712H127.751Z" fill="#FFDA8F" stroke="#45413C" stroke-width="1.13623" stroke-linecap="round" stroke-linejoin="round"/>
<path d="M104.276 74.5667C105.305 74.5667 106.139 73.7329 106.139 72.7044C106.139 71.6758 105.305 70.842 104.276 70.842C103.248 70.842 102.414 71.6758 102.414 72.7044C102.414 73.7329 103.248 74.5667 104.276 74.5667Z" fill="#FFBE3D"/>
<path d="M121.414 74.5667C122.443 74.5667 123.276 73.7329 123.276 72.7044C123.276 71.6758 122.443 70.842 121.414 70.842C120.386 70.842 119.552 71.6758 119.552 72.7044C119.552 73.7329 120.386 74.5667 121.414 74.5667Z" fill="#FFBE3D"/>
<path d="M117.319 76.4896C116.119 77.6468 114.516 78.2934 112.848 78.2934C111.181 78.2934 109.578 77.6468 108.377 76.4896" stroke="#45413C" stroke-width="1.13623" stroke-linecap="round" stroke-linejoin="round"/>
<path d="M109.121 67.8542C108.937 67.4133 108.626 67.0367 108.228 66.7718C107.831 66.5069 107.364 66.3656 106.886 66.3656C106.408 66.3656 105.941 66.5069 105.543 66.7718C105.145 67.0367 104.834 67.4133 104.65 67.8542" stroke="#45413C" stroke-width="1.13623" stroke-linecap="round" stroke-linejoin="round"/>
<path d="M121.043 67.8542C120.859 67.4133 120.549 67.0367 120.151 66.7718C119.753 66.5069 119.286 66.3656 118.808 66.3656C118.33 66.3656 117.863 66.5069 117.465 66.7718C117.067 67.0367 116.757 67.4133 116.573 67.8542" stroke="#45413C" stroke-width="1.13623" stroke-linecap="round" stroke-linejoin="round"/>
<path d="M137.719 115.47H87.9755C86.9443 115.47 86.1084 116.306 86.1084 117.338V147.91C86.1084 148.941 86.9443 149.777 87.9755 149.777H137.719C138.75 149.777 139.586 148.941 139.586 147.91V117.338C139.586 116.306 138.75 115.47 137.719 115.47Z" fill="#F0F0F0"/>
<path d="M137.626 115.47H88.0708C87.8131 115.47 87.558 115.521 87.3199 115.619C87.0818 115.718 86.8655 115.862 86.6833 116.044C86.501 116.226 86.3564 116.443 86.2578 116.681C86.1592 116.919 86.1084 117.174 86.1084 117.431V125.505C86.1084 125.247 86.1592 124.992 86.2578 124.754C86.3564 124.516 86.501 124.3 86.6833 124.118C86.8655 123.935 87.0818 123.791 87.3199 123.693C87.558 123.594 87.8131 123.544 88.0708 123.544H137.626C138.146 123.544 138.644 123.75 139.012 124.118C139.38 124.486 139.586 124.985 139.586 125.505V117.431C139.586 116.911 139.38 116.412 139.012 116.045C138.644 115.677 138.146 115.47 137.626 115.47Z" fill="white"/>
<path d="M137.719 115.47H87.9755C86.9443 115.47 86.1084 116.306 86.1084 117.338V147.91C86.1084 148.941 86.9443 149.777 87.9755 149.777H137.719C138.75 149.777 139.586 148.941 139.586 147.91V117.338C139.586 116.306 138.75 115.47 137.719 115.47Z" stroke="#45413C" stroke-width="1.13623" stroke-linecap="round" stroke-linejoin="round"/>
<path d="M116.03 134.797C116.025 134.346 116.114 133.898 116.293 133.483C116.471 133.067 116.734 132.694 117.066 132.387C116.92 132.027 116.687 131.71 116.387 131.464C116.087 131.218 115.73 131.051 115.349 130.979C114.841 130.976 114.342 131.121 113.914 131.395C113.486 131.67 113.147 132.063 112.938 132.527C112.729 132.063 112.389 131.67 111.961 131.395C111.533 131.12 111.035 130.976 110.526 130.979C109.048 131.155 108.076 133.179 108.352 135.501C108.629 137.822 110.053 139.56 111.528 139.384C111.811 139.341 112.083 139.239 112.325 139.086C112.568 138.932 112.775 138.729 112.934 138.49C113.094 138.729 113.302 138.932 113.544 139.086C113.787 139.24 114.059 139.341 114.343 139.384C115.424 139.514 116.472 138.611 117.066 137.209C116.734 136.902 116.471 136.528 116.292 136.113C116.114 135.698 116.025 135.249 116.03 134.797Z" fill="white" stroke="#45413C" stroke-width="1.13623" stroke-linecap="round" stroke-linejoin="round"/>
<path d="M114.621 127.929C114.748 127.516 114.992 127.149 115.324 126.872C115.655 126.595 116.059 126.421 116.488 126.372C116.361 126.784 116.118 127.152 115.786 127.428C115.454 127.705 115.049 127.879 114.621 127.929Z" fill="white"/>
<path d="M116.769 125.56C116.017 125.558 115.291 125.835 114.731 126.339C114.172 126.842 113.82 127.535 113.743 128.283C113.737 128.337 113.742 128.392 113.757 128.444C113.773 128.496 113.799 128.545 113.833 128.586C113.868 128.628 113.911 128.662 113.96 128.687C114.008 128.712 114.06 128.727 114.115 128.731C114.191 128.731 114.273 128.739 114.345 128.739C115.097 128.742 115.824 128.465 116.383 127.961C116.943 127.458 117.295 126.765 117.371 126.016C117.377 125.962 117.372 125.908 117.356 125.856C117.341 125.804 117.315 125.756 117.28 125.714C117.245 125.673 117.203 125.639 117.154 125.614C117.106 125.589 117.053 125.574 116.999 125.57C116.922 125.57 116.841 125.56 116.769 125.56Z" fill="#45413C"/>
<path d="M64.5394 78.488C66.0551 69.1471 59.7116 60.3462 50.3708 58.8304C41.0299 57.3147 32.229 63.6582 30.7132 72.999C29.1975 82.3399 35.541 91.1409 44.8818 92.6566C54.2227 94.1723 63.0236 87.8288 64.5394 78.488Z" fill="#FF6242" stroke="#45413C" stroke-width="1.13623" stroke-linecap="round" stroke-linejoin="round"/>
<path d="M60.0886 77.7658C61.2055 70.8831 56.5313 64.3982 49.6486 63.2813C42.7659 62.1644 36.2809 66.8386 35.1641 73.7213C34.0472 80.604 38.7214 87.089 45.6041 88.2058C52.4868 89.3227 58.9718 84.6485 60.0886 77.7658Z" fill="white"/>
<path d="M59.958 78.4671C59.3458 75.6519 57.7888 73.131 55.5456 71.3231C53.3024 69.5153 50.5082 68.5295 47.6272 68.5295C44.7463 68.5295 41.952 69.5153 39.7088 71.3231C37.4657 73.131 35.9086 75.6519 35.2965 78.4671C34.891 76.6229 34.9044 74.7113 35.3355 72.873C35.7667 71.0347 36.6047 69.3165 37.7879 67.845C38.971 66.3734 40.4692 65.186 42.172 64.3701C43.8749 63.5543 45.739 63.1307 47.6272 63.1307C49.5154 63.1307 51.3796 63.5543 53.0824 64.3701C54.7853 65.186 56.2834 66.3734 57.4666 67.845C58.6497 69.3165 59.4878 71.0347 59.9189 72.873C60.3501 74.7113 60.3635 76.6229 59.958 78.4671Z" fill="#F0F0F0"/>
<path d="M47.6252 70.335L47.6586 75.7125H50.1798" stroke="#45413C" stroke-width="1.13623" stroke-linecap="round" stroke-linejoin="round"/>
<path d="M47.6252 85.4039V83.7939" stroke="#45413C" stroke-width="1.13623" stroke-linecap="round" stroke-linejoin="round"/>
<path d="M47.6252 66.0864V67.6963" stroke="#45413C" stroke-width="1.13623" stroke-linecap="round" stroke-linejoin="round"/>
<path d="M54.4543 68.9155L53.3159 70.0539" stroke="#45413C" stroke-width="1.13623" stroke-linecap="round" stroke-linejoin="round"/>
<path d="M57.2857 75.7457H55.6758" stroke="#45413C" stroke-width="1.13623" stroke-linecap="round" stroke-linejoin="round"/>
<path d="M54.4543 82.5745L53.3159 81.4362" stroke="#45413C" stroke-width="1.13623" stroke-linecap="round" stroke-linejoin="round"/>
<path d="M40.7969 82.5745L41.9352 81.4362" stroke="#45413C" stroke-width="1.13623" stroke-linecap="round" stroke-linejoin="round"/>
<path d="M37.9661 75.7457H39.576" stroke="#45413C" stroke-width="1.13623" stroke-linecap="round" stroke-linejoin="round"/>
<path d="M40.7969 68.9155L41.9352 70.0539" stroke="#45413C" stroke-width="1.13623" stroke-linecap="round" stroke-linejoin="round"/>
<path d="M60.0886 77.7658C61.2055 70.8831 56.5313 64.3982 49.6486 63.2813C42.7659 62.1644 36.2809 66.8386 35.1641 73.7213C34.0472 80.604 38.7214 87.089 45.6041 88.2058C52.4868 89.3227 58.9718 84.6485 60.0886 77.7658Z" stroke="#45413C" stroke-width="1.13623" stroke-linecap="round" stroke-linejoin="round"/>
<path d="M87.9087 18.3281H57.7236C56.7372 18.3281 55.9375 19.1278 55.9375 20.1143V46.5492C55.9375 47.5357 56.7372 48.3354 57.7236 48.3354H87.9087C88.8952 48.3354 89.6949 47.5357 89.6949 46.5492V20.1143C89.6949 19.1278 88.8952 18.3281 87.9087 18.3281Z" fill="white" stroke="#45413C" stroke-width="1.13623" stroke-linecap="round" stroke-linejoin="round"/>
<path d="M84.7654 22.0781H60.8707C60.2183 22.0781 59.6895 22.607 59.6895 23.2594V37.7756C59.6895 38.4279 60.2183 38.9568 60.8707 38.9568H84.7654C85.4177 38.9568 85.9466 38.4279 85.9466 37.7756V23.2594C85.9466 22.607 85.4177 22.0781 84.7654 22.0781Z" fill="#80DDFF" stroke="#45413C" stroke-width="1.13623" stroke-linecap="round" stroke-linejoin="round"/>
<path d="M69.0646 28.6101C69.0711 29.1664 68.9125 29.7123 68.6089 30.1785C68.3052 30.6448 67.8701 31.0105 67.3586 31.2295C66.8471 31.4485 66.2822 31.5109 65.7352 31.4088C65.1882 31.3067 64.6838 31.0448 64.2857 30.656C63.8876 30.2672 63.6138 29.7692 63.4988 29.2248C63.3837 28.6804 63.4327 28.1141 63.6395 27.5975C63.8463 27.081 64.2017 26.6374 64.6606 26.3227C65.1195 26.0081 65.6615 25.8367 66.2178 25.83C66.5873 25.8256 66.954 25.894 67.297 26.0314C67.6401 26.1687 67.9527 26.3723 68.217 26.6304C68.4814 26.8886 68.6923 27.1963 68.8377 27.5359C68.9831 27.8756 69.0602 28.2406 69.0646 28.6101Z" fill="#FFE500" stroke="#45413C" stroke-width="1.13623" stroke-linecap="round" stroke-linejoin="round"/>
<path d="M65.3147 38.9585L68.8282 33.9144C68.9711 33.7092 69.1535 33.5347 69.3648 33.4011C69.5761 33.2674 69.812 33.1774 70.0586 33.1363C70.3052 33.0951 70.5576 33.1038 70.8008 33.1616C71.044 33.2194 71.2732 33.3253 71.4749 33.473L73.7104 35.1067L76.5682 30.4072C76.7413 30.1225 76.9872 29.8892 77.2804 29.7311C77.5737 29.573 77.9037 29.4958 78.2367 29.5076C78.5696 29.5195 78.8934 29.6198 79.1747 29.7982C79.456 29.9767 79.6847 30.2269 79.8373 30.5231L84.0653 38.9585H65.3147Z" fill="#6DD627" stroke="#45413C" stroke-width="1.13623" stroke-linecap="round" stroke-linejoin="round"/>
<path d="M160.743 40.9691C160.743 41.2065 160.696 41.4415 160.605 41.6607C160.514 41.8799 160.381 42.0791 160.213 42.2467C160.045 42.4144 159.846 42.5473 159.626 42.6378C159.407 42.7284 159.172 42.7747 158.935 42.7743H134.702C134.465 42.7743 134.23 42.7276 134.011 42.6369C133.792 42.5462 133.593 42.4132 133.425 42.2456C133.258 42.078 133.125 41.879 133.034 41.6599C132.943 41.4409 132.896 41.2062 132.896 40.9691V12.0923C132.896 11.6135 133.087 11.1544 133.425 10.8158C133.764 10.4773 134.223 10.2871 134.702 10.2871H151.461L160.743 19.5687V40.9691Z" fill="white" stroke="#45413C" stroke-width="1.13623" stroke-linecap="round" stroke-linejoin="round"/>
<path d="M151.462 10.2871V17.908C151.462 18.3501 151.637 18.7742 151.95 19.0868C152.263 19.3994 152.687 19.5751 153.129 19.5751H160.75L151.462 10.2871Z" fill="#E8F4FA" stroke="#45413C" stroke-width="1.13623" stroke-linecap="round" stroke-linejoin="round"/>
<path d="M161.441 29.842L148.507 42.7762L154.165 48.4345L167.099 35.5003L161.441 29.842Z" fill="#FFE500"/>
<path d="M164.67 26.6083L161.437 29.8416L167.095 35.4998L170.329 32.2665L164.67 26.6083Z" fill="#C0DCEB"/>
<path d="M170.33 32.2665L164.671 26.608L166.556 24.7218C166.928 24.3503 167.369 24.0556 167.854 23.8545C168.339 23.6534 168.86 23.5499 169.385 23.5499C169.911 23.5499 170.431 23.6534 170.916 23.8545C171.402 24.0556 171.843 24.3503 172.214 24.7218C172.586 25.0934 172.881 25.5345 173.082 26.0199C173.283 26.5054 173.386 27.0257 173.386 27.5511C173.386 28.0765 173.283 28.5968 173.082 29.0823C172.881 29.5677 172.586 30.0088 172.214 30.3804L170.33 32.2665Z" fill="#FFA694"/>
<path d="M148.504 42.7755L145.743 51.1966L154.163 48.434L148.504 42.7755Z" fill="#F7E5C6"/>
<path d="M161.437 29.8418L148.502 42.776L151.332 45.6051L164.266 32.6709L161.437 29.8418Z" fill="#FFF48C"/>
<path d="M164.67 26.6094L161.437 29.8427L164.266 32.6718L167.499 29.4385L164.67 26.6094Z" fill="#DAEDF7"/>
<path d="M151.334 45.6048L145.74 51.1982L148.505 42.7755L151.334 45.6048Z" fill="#FFF5E3"/>
<path d="M161.441 29.842L148.507 42.7762L154.165 48.4345L167.099 35.5003L161.441 29.842Z" stroke="#45413C" stroke-width="1.13623" stroke-linecap="round" stroke-linejoin="round"/>
<path d="M164.67 26.6083L161.437 29.8416L167.095 35.4998L170.329 32.2665L164.67 26.6083Z" stroke="#45413C" stroke-width="1.13623" stroke-linecap="round" stroke-linejoin="round"/>
<path d="M148.504 42.7755L145.743 51.1966L154.163 48.434L148.504 42.7755Z" stroke="#45413C" stroke-width="1.13623" stroke-linecap="round" stroke-linejoin="round"/>
<path d="M167.51 29.4374L164.681 26.6081L166.558 24.7219C166.929 24.3504 167.37 24.0556 167.856 23.8545C168.341 23.6534 168.861 23.5499 169.387 23.5499C169.912 23.5499 170.433 23.6534 170.918 23.8545C171.403 24.0556 171.845 24.3504 172.216 24.7219L167.51 29.4374Z" fill="#FFCABF"/>
<path d="M170.33 32.2665L164.671 26.608L166.556 24.7218C166.928 24.3503 167.369 24.0556 167.854 23.8545C168.339 23.6534 168.86 23.5499 169.385 23.5499C169.911 23.5499 170.431 23.6534 170.916 23.8545C171.402 24.0556 171.843 24.3503 172.214 24.7218C172.586 25.0934 172.881 25.5345 173.082 26.0199C173.283 26.5054 173.386 27.0257 173.386 27.5511C173.386 28.0765 173.283 28.5968 173.082 29.0823C172.881 29.5677 172.586 30.0088 172.214 30.3804L170.33 32.2665Z" stroke="#45413C" stroke-width="1.13623" stroke-linecap="round" stroke-linejoin="round"/>
<path d="M171.703 58.8301C171.297 58.9463 170.94 59.1915 170.685 59.5286C170.431 59.8658 170.293 60.2765 170.293 60.6989V75.1912C169.623 74.8978 168.896 74.7592 168.165 74.786C167.435 74.8127 166.72 75.0039 166.073 75.3455C165.427 75.6871 164.866 76.1702 164.432 76.7587C163.998 77.3473 163.703 78.0261 163.568 78.7447C163.433 79.4633 163.462 80.203 163.653 80.9088C163.844 81.6146 164.191 82.2683 164.67 82.821C165.148 83.3738 165.746 83.8114 166.417 84.1012C167.088 84.3911 167.816 84.5257 168.547 84.4951C169.828 84.4081 171.026 83.8324 171.895 82.8869C172.764 81.9414 173.236 80.6983 173.214 79.4145V65.3397L187.791 61.869V71.303C187.122 71.0096 186.395 70.8709 185.664 70.8974C184.934 70.9238 184.219 71.1147 183.572 71.4559C182.926 71.797 182.365 72.2796 181.931 72.8676C181.497 73.4557 181.201 74.134 181.066 74.8522C180.931 75.5704 180.959 76.3099 181.149 77.0156C181.339 77.7214 181.686 78.3751 182.163 78.9282C182.641 79.4813 183.238 79.9195 183.908 80.2101C184.579 80.5008 185.306 80.6364 186.036 80.6068C187.318 80.5203 188.517 79.9448 189.386 78.9992C190.255 78.0536 190.728 76.8103 190.706 75.5262V55.9834C190.706 55.6826 190.637 55.3857 190.503 55.1164C190.369 54.847 190.174 54.6125 189.934 54.4312C189.693 54.25 189.414 54.1271 189.119 54.0722C188.823 54.0173 188.518 54.0318 188.229 54.1147L171.703 58.8301Z" fill="#4ACFFF"/>
<path d="M171.703 58.8301C171.297 58.9463 170.94 59.1915 170.685 59.5286C170.431 59.8658 170.293 60.2765 170.293 60.6989V75.1912C169.623 74.8978 168.896 74.7592 168.165 74.786C167.435 74.8127 166.72 75.0039 166.073 75.3455C165.427 75.6871 164.866 76.1702 164.432 76.7587C163.998 77.3473 163.703 78.0261 163.568 78.7447C163.433 79.4633 163.462 80.203 163.653 80.9088C163.844 81.6146 164.191 82.2683 164.67 82.821C165.148 83.3738 165.746 83.8114 166.417 84.1012C167.088 84.3911 167.816 84.5257 168.547 84.4951C169.828 84.4081 171.026 83.8324 171.895 82.8869C172.764 81.9414 173.236 80.6983 173.214 79.4145V65.3397L187.791 61.869V71.303C187.122 71.0096 186.395 70.8709 185.664 70.8974C184.934 70.9238 184.219 71.1147 183.572 71.4559C182.926 71.797 182.365 72.2796 181.931 72.8676C181.497 73.4557 181.201 74.134 181.066 74.8522C180.931 75.5704 180.959 76.3099 181.149 77.0156C181.339 77.7214 181.686 78.3751 182.163 78.9282C182.641 79.4813 183.238 79.9195 183.908 80.2101C184.579 80.5008 185.306 80.6364 186.036 80.6068C187.318 80.5203 188.517 79.9448 189.386 78.9992C190.255 78.0536 190.728 76.8103 190.706 75.5262V55.9834C190.706 55.6826 190.637 55.3857 190.503 55.1164C190.369 54.847 190.174 54.6125 189.934 54.4312C189.693 54.25 189.414 54.1271 189.119 54.0722C188.823 54.0173 188.518 54.0318 188.229 54.1147L171.703 58.8301Z" stroke="#45413C" stroke-width="1.13623" stroke-linecap="round" stroke-linejoin="round"/>
<path d="M-10.7466 50.492C4.48522 59.2861 23.962 54.0673 32.7561 38.8355C41.5502 23.6037 36.3314 4.12694 21.0996 -4.66713C5.86782 -13.4612 -13.609 -8.24241 -22.4031 6.98937C-31.1971 22.2211 -25.9783 41.6979 -10.7466 50.492Z" fill="#F2DFC2" stroke="#F2DFC2" stroke-width="0.464981" stroke-miterlimit="10"/>
<path d="M-21.6264 23.9054L-22.6744 27.6616L-9.82824 31.2466L-5.34748 15.1898C-2.6505 14.6748 -0.136111 13.4605 1.94397 11.6682C4.02404 9.87596 5.59682 7.56874 6.50485 4.97753C6.55037 4.84609 6.56853 4.70674 6.55824 4.56802C6.54795 4.4293 6.50941 4.29415 6.44499 4.17087C6.38057 4.04759 6.29164 3.93877 6.18364 3.8511C6.07565 3.76344 5.95087 3.69877 5.81698 3.66107L2.56527 2.75358C1.77454 5.51041 -0.0398988 7.86081 -2.5067 9.32376C-4.97351 10.7867 -7.90616 11.2516 -10.7045 10.6233C-19.1363 8.90014 -21.2704 11.1283 -22.7953 15.8778C-23.2076 17.0989 -23.4991 18.3575 -23.6658 19.6354C-23.9047 22.226 -21.6264 23.9054 -21.6264 23.9054Z" fill="#E8F4FA"/>
<path d="M-23.28 21.8112C-23.094 20.7831 -22.838 19.7689 -22.5139 18.7757C-20.989 14.0262 -18.8535 11.7988 -10.4241 13.5214C-7.62591 14.1493 -4.69352 13.6842 -2.22701 12.2211C0.239503 10.758 2.05366 8.40765 2.84423 5.65097L5.87599 6.49675C6.11005 6.00167 6.31879 5.49502 6.50143 4.97876C6.54695 4.84732 6.56512 4.70796 6.55482 4.56924C6.54453 4.43052 6.50599 4.29537 6.44158 4.17209C6.37716 4.04881 6.28822 3.93999 6.18023 3.85233C6.07223 3.76466 5.94745 3.69999 5.81356 3.6623L2.56186 2.75481C1.77112 5.51163 -0.0433137 7.86202 -2.51012 9.32497C-4.97692 10.7879 -7.90957 11.2528 -10.7079 10.6245C-19.1397 8.90135 -21.2738 11.1296 -22.7987 15.879C-23.211 17.1001 -23.5025 18.3587 -23.6692 19.6366C-23.7334 20.3831 -23.5991 21.1333 -23.28 21.8112Z" fill="white"/>
<path d="M-21.6264 23.9054L-22.6744 27.6616L-9.82824 31.2466L-5.34748 15.1898C-2.6505 14.6748 -0.13611 13.4605 1.94397 11.6682C4.02404 9.87596 5.59682 7.56874 6.50485 4.97753C6.55037 4.84609 6.56853 4.70674 6.55824 4.56802C6.54795 4.4293 6.50941 4.29415 6.44499 4.17087C6.38057 4.04759 6.29164 3.93877 6.18364 3.8511C6.07565 3.76344 5.95087 3.69877 5.81698 3.66107L2.56528 2.75358C1.77454 5.51041 -0.0398986 7.86081 -2.5067 9.32376C-4.97351 10.7867 -7.90616 11.2516 -10.7045 10.6233C-19.1363 8.90014 -21.2704 11.1283 -22.7953 15.8778C-23.2076 17.0989 -23.4991 18.3575 -23.6658 19.6354C-23.9047 22.226 -21.6264 23.9054 -21.6264 23.9054Z" stroke="#45413C" stroke-width="0.464981" stroke-linecap="round" stroke-linejoin="round"/>
<path d="M17.7204 -18.0575C12.4872 -23.915 8.05735 -28.3342 -0.849148 -25.9646C-0.997266 -25.9263 -1.13573 -25.8574 -1.25565 -25.7624C-1.37556 -25.6674 -1.47428 -25.5483 -1.54546 -25.4129C-1.61664 -25.2775 -1.6587 -25.1286 -1.66895 -24.976C-1.6792 -24.8233 -1.65741 -24.6702 -1.60498 -24.5265C0.8871 -17.7795 -3.08377 -8.49422 6.04223 -1.89874C9.18152 0.370627 20.9125 -14.4881 17.7204 -18.0575Z" fill="#D9FDFF"/>
<path d="M17.7204 -18.0575C12.4872 -23.915 8.05735 -28.3342 -0.849148 -25.9646C-0.997266 -25.9263 -1.13573 -25.8574 -1.25565 -25.7624C-1.37556 -25.6674 -1.47428 -25.5483 -1.54546 -25.4129C-1.61664 -25.2775 -1.6587 -25.1286 -1.66895 -24.976C-1.6792 -24.8233 -1.65741 -24.6702 -1.60498 -24.5265C0.8871 -17.7795 -3.08377 -8.49422 6.04223 -1.89874C9.18152 0.370627 20.9125 -14.4881 17.7204 -18.0575Z" stroke="#45413C" stroke-width="0.464981" stroke-linecap="round" stroke-linejoin="round"/>
<path d="M15.3002 -7.00415C18.657 -11.6494 19.7409 -16.5983 17.7204 -18.0572C15.6999 -19.5161 11.3421 -16.9345 7.98494 -12.2885C5.12813 -8.33559 3.92506 -4.17066 4.87005 -2.11646C4.8497 -2.09236 4.8211 -2.07945 4.80202 -2.05278L-13.7835 23.4665C-13.8677 23.583 -13.9281 23.7148 -13.9613 23.8546C-13.9946 23.9944 -13.9999 24.1394 -13.9771 24.2812C-13.9543 24.4231 -13.9038 24.559 -13.8284 24.6814C-13.7531 24.8037 -13.6544 24.91 -13.5379 24.9942C-13.4215 25.0784 -13.2896 25.1388 -13.1499 25.172C-13.0101 25.2052 -12.8651 25.2106 -12.7233 25.1878C-12.5814 25.165 -12.4454 25.1145 -12.3231 25.0391C-12.2008 24.9638 -12.0945 24.8651 -12.0103 24.7486L6.5778 -0.771959C6.59372 -0.799539 6.59978 -0.829137 6.61639 -0.856319C8.86542 -0.60219 12.4423 -3.05091 15.3002 -7.00415ZM6.96563 -3.17454C5.87409 -3.96379 7.02322 -7.41429 9.53019 -10.8871C12.0372 -14.3599 14.9552 -16.5289 16.0461 -15.7401C17.137 -14.9512 15.9885 -11.5003 13.4809 -8.02791C10.9732 -4.55551 8.0546 -2.38402 6.96335 -3.17218L6.96563 -3.17454Z" fill="#B89558" stroke="#45413C" stroke-width="0.464981" stroke-linecap="round" stroke-linejoin="round"/>
<path d="M5.97537 3.85294L7.49741 1.86157C7.69737 1.6072 7.80122 1.29046 7.79068 0.967074C7.78015 0.64369 7.6559 0.334378 7.43981 0.0935606L6.51429 -0.900448C6.37731 -1.04333 6.21066 -1.15442 6.02609 -1.2259C5.84151 -1.29738 5.6435 -1.32751 5.44602 -1.31416C5.24854 -1.30082 5.05639 -1.24432 4.88311 -1.14865C4.70983 -1.05298 4.55965 -0.920467 4.44314 -0.760455L2.6393 1.59958C2.51546 1.75391 2.42696 1.93352 2.38004 2.12575C2.33312 2.31798 2.32893 2.51817 2.36775 2.7122C2.40657 2.90623 2.48746 3.08939 2.60473 3.24877C2.722 3.40816 2.87279 3.53989 3.04648 3.63469L4.2521 4.26456C4.54177 4.41012 4.87356 4.44864 5.18888 4.37332C5.50419 4.298 5.78275 4.11369 5.97537 3.85294Z" fill="#FFDA8F" stroke="#45413C" stroke-width="0.464981" stroke-linecap="round" stroke-linejoin="round"/>
<path d="M-10.8968 9.35724C-9.63122 9.6799 -8.29571 9.59037 -7.08452 9.10169C-5.87334 8.613 -4.84965 7.75064 -4.16236 6.64005L-4.15823 6.64244C-2.27294 7.12691 -1.39168 4.1754 -3.09319 3.73726L-2.78659 2.54541C-2.37967 0.963897 -2.61767 -0.714489 -3.44824 -2.12052C-4.2788 -3.52656 -5.63389 -4.54506 -7.2154 -4.95198C-8.79692 -5.3589 -10.4753 -5.12091 -11.8813 -4.29034C-13.2874 -3.45978 -14.3059 -2.10469 -14.7128 -0.523175L-15.0194 0.668678C-16.7213 0.231233 -17.3735 3.24144 -15.488 3.727L-15.4845 3.72899C-15.418 5.03316 -14.9373 6.28213 -14.1122 7.29433C-13.2872 8.30652 -12.1608 9.02918 -10.8968 9.35724Z" fill="#FFDA8F" stroke="#45413C" stroke-width="0.464981" stroke-linecap="round" stroke-linejoin="round"/>
<path d="M-11.4012 -2.23466C-9.52322 0.83718 -5.21099 1.64817 -2.2597 1.51714C-2.14709 1.51162 -2.03953 1.46867 -1.95409 1.3951C-1.86865 1.32153 -1.81021 1.22154 -1.78803 1.11099C-1.45069 -0.619424 -1.80146 -2.41318 -2.76579 -3.88906C-3.73013 -5.36493 -5.232 -6.40657 -6.95221 -6.79258C-8.71413 -7.13931 -10.5419 -6.79171 -12.0535 -5.82243C-13.5651 -4.85314 -14.6437 -3.33717 -15.0638 -1.5913L-15.3471 -0.490793C-15.3683 -0.409163 -15.3691 -0.323566 -15.3494 -0.241566C-15.3296 -0.159565 -15.29 -0.0836867 -15.234 -0.0206329C-15.178 0.042421 -15.1073 0.090708 -15.0282 0.119962C-14.9491 0.149216 -14.864 0.158535 -14.7805 0.147097C-13.7192 0.00320071 -11.8498 -0.495958 -11.4032 -2.23121" fill="#614B44"/>
<path d="M-11.4012 -2.23466C-9.52322 0.83718 -5.21099 1.64817 -2.2597 1.51714C-2.14709 1.51162 -2.03953 1.46867 -1.95409 1.3951C-1.86865 1.32153 -1.81021 1.22154 -1.78803 1.11099C-1.45069 -0.619424 -1.80146 -2.41318 -2.76579 -3.88906C-3.73013 -5.36493 -5.232 -6.40657 -6.95221 -6.79258C-8.71413 -7.13931 -10.5419 -6.79171 -12.0535 -5.82243C-13.5651 -4.85314 -14.6437 -3.33717 -15.0638 -1.5913L-15.3471 -0.490793C-15.3683 -0.409163 -15.3691 -0.323566 -15.3494 -0.241566C-15.3296 -0.159565 -15.29 -0.0836868 -15.234 -0.0206331C-15.178 0.0424206 -15.1073 0.0907082 -15.0282 0.119962C-14.9491 0.149216 -14.864 0.158534 -14.7805 0.147097C-13.7192 0.00320088 -11.8498 -0.495957 -11.4032 -2.23121" stroke="#45413C" stroke-width="0.464981" stroke-linecap="round" stroke-linejoin="round"/>
<path d="M-7.65609 -4.04761C-6.3276 -3.74986 -5.11968 -3.05865 -4.18989 -2.06414C-3.26011 -1.06962 -2.65163 0.182016 -2.44382 1.52752C-2.38199 1.52552 -2.31947 1.52392 -2.25696 1.52232C-2.14415 1.51689 -2.03639 1.47396 -1.95075 1.40033C-1.86511 1.32671 -1.8065 1.22661 -1.7842 1.11589C-1.44686 -0.614525 -1.79763 -2.40829 -2.76196 -3.88416C-3.7263 -5.36004 -5.22817 -6.40167 -6.94839 -6.78768C-8.71017 -7.13561 -10.5383 -6.78918 -12.0506 -5.82079C-13.5629 -4.8524 -14.6425 -3.33699 -15.0636 -1.59126L-15.3473 -0.490063C-15.3792 -0.368703 -15.3652 -0.239866 -15.308 -0.128161C-14.6656 -1.55197 -13.5585 -2.71528 -12.1682 -3.4274C-10.7779 -4.13953 -9.18695 -4.35821 -7.65609 -4.04761Z" fill="#947063"/>
<path d="M-11.4012 -2.23466C-9.52322 0.83718 -5.21099 1.64817 -2.2597 1.51714C-2.14709 1.51162 -2.03953 1.46867 -1.95409 1.3951C-1.86865 1.32153 -1.81021 1.22154 -1.78803 1.11099C-1.45069 -0.619424 -1.80146 -2.41318 -2.76579 -3.88906C-3.73013 -5.36493 -5.232 -6.40657 -6.95221 -6.79258C-8.71413 -7.13931 -10.5419 -6.79171 -12.0535 -5.82243C-13.5651 -4.85314 -14.6437 -3.33717 -15.0638 -1.5913L-15.3471 -0.490793C-15.3683 -0.409163 -15.3691 -0.323566 -15.3494 -0.241566C-15.3296 -0.159565 -15.29 -0.0836868 -15.234 -0.0206331C-15.178 0.0424206 -15.1073 0.0907082 -15.0282 0.119962C-14.9491 0.149216 -14.864 0.158534 -14.7805 0.147097C-13.7192 0.00320088 -11.8498 -0.495957 -11.4032 -2.23121" stroke="#45413C" stroke-width="0.464981" stroke-linecap="round" stroke-linejoin="round"/>
<path d="M19.5636 6.79476L35.8394 -3.48765C36.0358 -3.61171 36.2734 -3.65267 36.5 -3.60154C36.7265 -3.55041 36.9235 -3.41137 37.0476 -3.21501L42.8434 5.95914C42.9675 6.1555 43.0084 6.39311 42.9573 6.61968C42.9062 6.84625 42.7671 7.04323 42.5708 7.16728L26.2949 17.4497C26.0986 17.5737 25.8609 17.6147 25.6344 17.5636C25.4078 17.5125 25.2108 17.3734 25.0868 17.1771L19.2905 8.00223C19.1664 7.80587 19.1255 7.56827 19.1766 7.3417C19.2277 7.11513 19.3668 6.91815 19.5631 6.79409L19.5636 6.79476Z" fill="#6DD627"/>
<path d="M38.8248 -0.404064L21.0693 10.8118L19.2916 7.99924C19.168 7.80296 19.1274 7.56568 19.1785 7.33945C19.2297 7.11322 19.3685 6.91653 19.5645 6.79252L35.8414 -3.48803C36.0377 -3.61161 36.275 -3.65228 36.5012 -3.60112C36.7274 -3.54996 36.9241 -3.41115 37.0481 -3.21514L38.8248 -0.404064Z" fill="#9CEB60"/>
<path d="M39.2923 4.26856L37.0461 0.71663C36.575 1.01397 36.0051 1.11213 35.4617 0.98956C34.9183 0.866986 34.4458 0.533698 34.148 0.0629243L23.4999 6.79126C23.7971 7.26223 23.8951 7.83191 23.7725 8.37514C23.6499 8.91836 23.3166 9.39067 22.8459 9.6883L25.0886 13.24C25.5596 12.9425 26.1295 12.8442 26.673 12.9668C27.2165 13.0893 27.689 13.4228 27.9867 13.8937L38.6383 7.16559C38.3409 6.69468 38.2427 6.12493 38.3653 5.58164C38.488 5.03836 38.8214 4.56604 39.2923 4.26856Z" fill="#C8FFA1"/>
<path d="M34.1507 0.0645182L23.4999 6.79126C23.7971 7.26223 23.8951 7.83191 23.7725 8.37513C23.6499 8.91835 23.3166 9.39067 22.8459 9.68829L37.0461 0.716629C36.5754 1.01324 36.0064 1.11116 35.4636 0.98892C34.9209 0.866683 34.4488 0.534263 34.1507 0.0645182Z" fill="#E4FFD1"/>
<path d="M32.8437 5.85909C33.0661 6.21013 33.1794 6.61929 33.1693 7.03475C33.1591 7.45022 33.0258 7.85332 32.7865 8.19304C32.5471 8.53276 32.2123 8.79382 31.8245 8.94318C31.4366 9.09254 31.0132 9.12349 30.6078 9.03211C30.2024 8.94072 29.8332 8.73111 29.5469 8.4298C29.2607 8.1285 29.0703 7.74905 28.9998 7.33948C28.9293 6.92991 28.9819 6.50864 29.151 6.12898C29.32 5.74932 29.5979 5.42835 29.9494 5.20669C30.4199 4.90981 30.9889 4.81177 31.5315 4.93409C32.0742 5.05641 32.5461 5.3891 32.8437 5.85909Z" fill="#9CEB60"/>
<path d="M32.8437 5.85909C33.0661 6.21013 33.1794 6.61929 33.1693 7.03475C33.1591 7.45022 33.0258 7.85332 32.7865 8.19304C32.5471 8.53276 32.2123 8.79382 31.8245 8.94318C31.4366 9.09254 31.0132 9.12349 30.6078 9.03211C30.2024 8.94072 29.8332 8.73111 29.5469 8.4298C29.2607 8.1285 29.0703 7.74905 28.9998 7.33948C28.9293 6.92991 28.9819 6.50864 29.151 6.12898C29.32 5.74932 29.5979 5.42835 29.9494 5.20669C30.4199 4.90981 30.9889 4.81177 31.5315 4.93409C32.0742 5.05641 32.5461 5.3891 32.8437 5.85909V5.85909Z" stroke="#45413C" stroke-width="0.464981" stroke-linecap="round" stroke-linejoin="round"/>
<path d="M39.2923 4.26856L37.0461 0.71663C36.575 1.01397 36.0051 1.11213 35.4617 0.98956C34.9183 0.866986 34.4458 0.533698 34.148 0.0629242L23.4999 6.79126C23.7971 7.26223 23.8951 7.83191 23.7725 8.37513C23.6499 8.91835 23.3166 9.39067 22.8459 9.6883L25.0886 13.24C25.5596 12.9425 26.1295 12.8442 26.673 12.9668C27.2165 13.0893 27.689 13.4228 27.9867 13.8937L38.6383 7.16559C38.3409 6.69468 38.2427 6.12493 38.3653 5.58164C38.488 5.03836 38.8214 4.56604 39.2923 4.26856V4.26856Z" stroke="#45413C" stroke-width="0.464981" stroke-linecap="round" stroke-linejoin="round"/>
<path d="M19.5636 6.79476L35.8394 -3.48765C36.0358 -3.61171 36.2734 -3.65267 36.5 -3.60154C36.7265 -3.55041 36.9235 -3.41137 37.0476 -3.21501L42.8434 5.95914C42.9675 6.1555 43.0084 6.39311 42.9573 6.61968C42.9062 6.84625 42.7671 7.04323 42.5708 7.16728L26.2949 17.4497C26.0986 17.5737 25.8609 17.6147 25.6344 17.5636C25.4078 17.5125 25.2108 17.3734 25.0868 17.1771L19.2905 8.00223C19.1664 7.80587 19.1255 7.56827 19.1766 7.3417C19.2277 7.11513 19.3668 6.91815 19.5631 6.79409L19.5636 6.79476Z" stroke="#45413C" stroke-width="0.464981" stroke-linecap="round" stroke-linejoin="round"/>
<path d="M39.1772 14.3566C39.2004 17.6189 34.6943 17.744 34.1911 14.7764C33.7806 12.3394 36.37 10.8273 39.2554 11.2595C43.0351 11.8256 45.7024 14.3106 47.2638 17.9452C48.3687 20.5137 44.6076 22.1859 43.1504 19.7992C43.0671 21.8113 40.3862 22.7925 39.4091 20.114C39.5161 21.3617 36.8368 22.3401 36.1475 20.1375C35.4583 17.935 36.1283 16.8445 36.1283 16.8445" fill="white"/>
<path d="M39.1772 14.3566C39.2004 17.6189 34.6943 17.744 34.1911 14.7764C33.7806 12.3394 36.37 10.8273 39.2554 11.2595C43.0351 11.8256 45.7024 14.3106 47.2638 17.9452C48.3687 20.5137 44.6076 22.1859 43.1504 19.7992C43.0671 21.8113 40.3862 22.7925 39.4091 20.114C39.5161 21.3617 36.8368 22.3401 36.1475 20.1376C35.4583 17.935 36.1283 16.8445 36.1283 16.8445" stroke="#45413C" stroke-width="0.464981" stroke-linecap="round" stroke-linejoin="round"/>
<path d="M28.4636 -3.85091C25.4946 -5.20192 23.5393 -1.1385 26.0469 0.530802C28.1047 1.90274 30.5411 0.15245 31.3229 -2.65701C32.3465 -6.34083 31.167 -9.78807 28.4844 -12.6956C26.5882 -14.752 23.5296 -12.0003 25.1167 -9.69681C23.2432 -10.4438 21.257 -8.39684 23.3039 -6.41062C22.2084 -7.01463 20.2229 -4.96726 21.9522 -3.44204C23.6816 -1.91682 24.9498 -2.0911 24.9498 -2.0911" fill="white"/>
<path d="M28.4636 -3.85091C25.4946 -5.20192 23.5393 -1.1385 26.0469 0.530803C28.1047 1.90274 30.5411 0.15245 31.3229 -2.65701C32.3465 -6.34083 31.167 -9.78807 28.4844 -12.6956C26.5882 -14.752 23.5296 -12.0003 25.1167 -9.69681C23.2432 -10.4438 21.257 -8.39684 23.3039 -6.41062C22.2084 -7.01463 20.2229 -4.96726 21.9522 -3.44204C23.6816 -1.91682 24.9498 -2.0911 24.9498 -2.0911" stroke="#45413C" stroke-width="0.464981" stroke-linecap="round" stroke-linejoin="round"/>
<path d="M25.0249 26.212L8.57621 30.9581C8.16346 31.0772 7.9254 31.5083 8.0445 31.9211L10.7198 41.193C10.8389 41.6057 11.2701 41.8438 11.6828 41.7247L28.1315 36.9786C28.5442 36.8595 28.7823 36.4284 28.6632 36.0156L25.9879 26.7437C25.8688 26.3309 25.4376 26.0929 25.0249 26.212Z" fill="#6DD627"/>
<path d="M26.8099 29.5856L8.86405 34.762L8.04442 31.9206C7.98762 31.7223 8.01174 31.5095 8.1115 31.329C8.21126 31.1484 8.37853 31.0148 8.57664 30.9574L25.0257 26.2112C25.2239 26.1542 25.4366 26.1781 25.6171 26.2779C25.7976 26.3776 25.9311 26.5449 25.9882 26.743L26.8099 29.5856Z" fill="#9CEB60"/>
<path d="M26.05 33.6908L25.0145 30.1024C24.5386 30.2398 24.0276 30.1825 23.5939 29.9431C23.1603 29.7038 22.8394 29.302 22.702 28.8261L11.9361 31.9323C12.073 32.4082 12.0155 32.919 11.7763 33.3525C11.537 33.7861 11.1354 34.107 10.6598 34.2448L11.6942 37.8335C11.9299 37.7654 12.1766 37.7443 12.4204 37.7716C12.6642 37.7989 12.9002 37.8739 13.1149 37.9924C13.3297 38.111 13.519 38.2707 13.672 38.4624C13.825 38.6541 13.9388 38.8741 14.0067 39.1098L24.7737 36.0033C24.6363 35.5274 24.6936 35.0164 24.933 34.5827C25.1723 34.1491 25.5741 33.8282 26.05 33.6908Z" fill="#C8FFA1"/>
<path d="M22.702 28.8261L11.9361 31.9323C12.073 32.4082 12.0155 32.919 11.7763 33.3525C11.537 33.7861 11.1354 34.107 10.6598 34.2448L25.0145 30.1024C24.5386 30.2398 24.0276 30.1825 23.5939 29.9431C23.1603 29.7038 22.8394 29.302 22.702 28.8261Z" fill="#E4FFD1"/>
<path d="M20.1505 33.4487C20.2528 33.8037 20.2477 34.181 20.1356 34.533C20.0235 34.885 19.8096 35.1959 19.5208 35.4263C19.2321 35.6567 18.8815 35.7963 18.5134 35.8275C18.1453 35.8587 17.7762 35.78 17.4528 35.6014C17.1295 35.4228 16.8663 35.1523 16.6967 34.8241C16.527 34.496 16.4585 34.1249 16.4998 33.7578C16.541 33.3907 16.6902 33.044 16.9285 32.7617C17.1668 32.4794 17.4834 32.2741 17.8383 32.1717C18.074 32.1037 18.3208 32.0827 18.5645 32.1101C18.8083 32.1374 19.0443 32.2125 19.259 32.3311C19.4737 32.4497 19.663 32.6095 19.8159 32.8012C19.9689 32.993 20.0826 33.213 20.1505 33.4487Z" fill="#9CEB60"/>
<path d="M20.1505 33.4487C20.2528 33.8037 20.2477 34.181 20.1356 34.533C20.0235 34.885 19.8096 35.1959 19.5208 35.4263C19.2321 35.6567 18.8815 35.7963 18.5134 35.8275C18.1453 35.8587 17.7762 35.78 17.4528 35.6014C17.1295 35.4228 16.8663 35.1523 16.6967 34.8241C16.527 34.496 16.4585 34.1249 16.4998 33.7578C16.541 33.3907 16.6902 33.044 16.9285 32.7617C17.1668 32.4794 17.4834 32.2741 17.8383 32.1717C18.074 32.1037 18.3208 32.0827 18.5645 32.1101C18.8083 32.1374 19.0443 32.2125 19.259 32.3311C19.4737 32.4497 19.663 32.6095 19.8159 32.8012C19.9689 32.993 20.0826 33.213 20.1505 33.4487V33.4487Z" stroke="#45413C" stroke-width="0.464981" stroke-linecap="round" stroke-linejoin="round"/>
<path d="M26.05 33.6908L25.0145 30.1024C24.5386 30.2398 24.0276 30.1825 23.5939 29.9431C23.1603 29.7038 22.8394 29.302 22.702 28.8261L11.9361 31.9323C12.073 32.4082 12.0155 32.919 11.7763 33.3525C11.537 33.7861 11.1354 34.107 10.6598 34.2448L11.6942 37.8335C11.9299 37.7654 12.1766 37.7443 12.4204 37.7716C12.6642 37.7989 12.9002 37.8739 13.1149 37.9924C13.3297 38.111 13.519 38.2707 13.672 38.4624C13.825 38.6541 13.9388 38.8741 14.0067 39.1098L24.7737 36.0033C24.6363 35.5274 24.6936 35.0164 24.933 34.5827C25.1723 34.1491 25.5741 33.8282 26.05 33.6908V33.6908Z" stroke="#45413C" stroke-width="0.464981" stroke-linecap="round" stroke-linejoin="round"/>
<path d="M25.0249 26.212L8.57621 30.9581C8.16346 31.0772 7.9254 31.5083 8.0445 31.9211L10.7198 41.193C10.8389 41.6057 11.2701 41.8438 11.6828 41.7247L28.1315 36.9786C28.5442 36.8595 28.7823 36.4284 28.6632 36.0156L25.9879 26.7437C25.8688 26.3309 25.4376 26.0929 25.0249 26.212Z" stroke="#45413C" stroke-width="0.464981" stroke-linecap="round" stroke-linejoin="round"/>
<path d="M17.5813 23.7756C15.2271 21.7674 12.3812 24.9626 14.2323 27.1401C15.7512 28.9262 18.4304 27.9688 19.8777 25.6116C21.775 22.5214 21.5982 19.0665 19.9125 15.7141C18.7201 13.3433 15.2117 15.0539 16.0566 17.5697C14.5432 16.3981 12.1973 17.7464 13.5452 20.093C12.7041 19.2553 10.3575 20.6033 11.5363 22.4468C12.7151 24.2903 13.9156 24.4641 13.9156 24.4641" fill="white"/>
<path d="M17.5813 23.7756C15.2271 21.7674 12.3812 24.9626 14.2323 27.1401C15.7512 28.9262 18.4304 27.9688 19.8777 25.6116C21.775 22.5214 21.5982 19.0665 19.9125 15.7141C18.7201 13.3433 15.2117 15.0539 16.0566 17.5697C14.5432 16.3981 12.1973 17.7464 13.5452 20.093C12.7041 19.2553 10.3575 20.6033 11.5363 22.4468C12.7151 24.2903 13.9156 24.4641 13.9156 24.4641" stroke="#45413C" stroke-width="0.464981" stroke-linecap="round" stroke-linejoin="round"/>
<path d="M22.3796 42.7339C22.1147 45.8169 17.846 45.5404 17.6328 42.6915C17.459 40.3526 20.0394 39.1507 22.7271 39.8089C26.2488 40.6755 28.55 43.258 29.7061 46.8287C30.5225 49.3538 26.8241 50.6007 25.6585 48.2169C25.4044 50.1139 22.7867 50.8025 22.0992 48.1845C22.0878 49.373 19.472 50.0599 19.0162 47.9195C18.5604 45.7791 19.2956 44.8145 19.2956 44.8145" fill="white"/>
<path d="M22.3796 42.7339C22.1147 45.8169 17.846 45.5404 17.6328 42.6915C17.459 40.3526 20.0394 39.1507 22.7271 39.8089C26.2488 40.6755 28.55 43.258 29.7061 46.8287C30.5225 49.3538 26.8241 50.6007 25.6585 48.2169C25.4044 50.1139 22.7867 50.8025 22.0992 48.1845C22.0878 49.373 19.472 50.0599 19.0162 47.9195C18.5604 45.7791 19.2956 44.8145 19.2956 44.8145" stroke="#45413C" stroke-width="0.464981" stroke-linecap="round" stroke-linejoin="round"/>
<path d="M166.731 3.56551C181.365 -0.355448 190.049 -15.3966 186.128 -30.0298C182.207 -44.663 167.166 -53.347 152.532 -49.4261C137.899 -45.5051 129.215 -30.464 133.136 -15.8308C137.057 -1.19753 152.098 7.48647 166.731 3.56551Z" fill="#F2DFC2" stroke="#F2DFC2" stroke-width="0.464981" stroke-miterlimit="10"/>
<path d="M163.534 -48.1142L134.388 -40.3047C134.023 -40.2067 133.806 -39.8306 133.904 -39.4648L144.908 1.60367C145.006 1.96949 145.382 2.18659 145.748 2.08857L174.893 -5.72091C175.259 -5.81893 175.476 -6.19496 175.378 -6.56079L164.374 -47.6293C164.276 -47.9951 163.9 -48.2122 163.534 -48.1142Z" fill="#DEA47A"/>
<path d="M163.534 -48.1142L134.388 -40.3047C134.023 -40.2067 133.806 -39.8306 133.904 -39.4648L144.908 1.60367C145.006 1.96949 145.382 2.18659 145.748 2.08857L174.893 -5.72091C175.259 -5.81893 175.476 -6.19496 175.378 -6.56079L164.374 -47.6293C164.276 -47.9951 163.9 -48.2122 163.534 -48.1142Z" stroke="#45413C" stroke-width="0.464981" stroke-linecap="round" stroke-linejoin="round"/>
<path d="M171.1 -5.39991L172.51 11.144L177.103 9.91313L177.232 -2.98361C177.176 -3.26403 177.229 -3.55518 177.38 -3.798C177.531 -4.04081 177.769 -4.2171 178.045 -4.2911C178.321 -4.3651 178.615 -4.33127 178.868 -4.19647C179.12 -4.06167 179.311 -3.836 179.403 -3.56524L185.964 7.53905L190.557 6.30817L183.506 -8.72408L171.1 -5.39991Z" fill="#87898C"/>
<path d="M171.1 -5.39991L172.51 11.144L177.103 9.91313L177.232 -2.98361C177.176 -3.26403 177.229 -3.55518 177.38 -3.798C177.531 -4.04081 177.769 -4.2171 178.045 -4.2911C178.321 -4.3651 178.615 -4.33127 178.868 -4.19647C179.12 -4.06167 179.311 -3.836 179.403 -3.56524L185.964 7.53905L190.557 6.30817L183.506 -8.72408L171.1 -5.39991Z" stroke="#45413C" stroke-width="0.464981" stroke-linecap="round" stroke-linejoin="round"/>
<path opacity="0.15" d="M182.107 10.7416C187.377 9.32936 191.478 7.54364 191.266 6.75308C191.055 5.96252 186.61 6.46649 181.34 7.87872C176.069 9.29095 171.968 11.0767 172.18 11.8672C172.392 12.6578 176.836 12.1538 182.107 10.7416Z" fill="#45413C"/>
<path d="M173.034 11.4702C172.87 11.5156 172.698 11.5181 172.534 11.4775C172.369 11.4369 172.218 11.3546 172.095 11.2384C171.971 11.1223 171.88 10.9763 171.83 10.8145C171.779 10.6528 171.771 10.4808 171.807 10.3151C171.934 9.80075 172.197 9.32995 172.568 8.95179C172.94 8.57362 173.405 8.30193 173.917 8.16504L174.394 8.03724C174.906 7.89977 175.445 7.9021 175.956 8.04398C176.467 8.18586 176.93 8.4621 177.298 8.84392C177.411 8.96968 177.49 9.12263 177.528 9.28798C177.565 9.45332 177.559 9.62547 177.51 9.78777C177.461 9.95006 177.371 10.097 177.249 10.2144C177.127 10.3318 176.976 10.4156 176.812 10.4578L173.034 11.4702Z" fill="#656769" stroke="#45413C" stroke-width="0.464981" stroke-linecap="round" stroke-linejoin="round"/>
<path d="M159.693 -19.031L174.907 -8.46333C175.49 -8.05715 175.894 -7.44146 176.034 -6.74478C176.174 -6.04809 176.039 -5.32427 175.658 -4.7244C175.277 -4.12453 174.679 -3.69497 173.989 -3.52541C173.299 -3.35585 172.57 -3.45938 171.955 -3.81439L155.919 -13.092L159.693 -19.031Z" fill="#525252"/>
<path d="M159.693 -19.031L174.907 -8.46333C175.49 -8.05715 175.894 -7.44146 176.034 -6.74477C176.174 -6.04809 176.039 -5.32427 175.658 -4.7244C175.277 -4.12453 174.679 -3.69497 173.989 -3.52541C173.299 -3.35585 172.57 -3.45938 171.955 -3.81439L155.919 -13.092L159.693 -19.031Z" stroke="#45413C" stroke-width="0.464981" stroke-linecap="round" stroke-linejoin="round"/>
<path d="M159.693 -19.031L174.907 -8.46333C175.49 -8.05715 175.894 -7.44146 176.034 -6.74477C176.174 -6.04809 176.039 -5.32427 175.658 -4.7244C175.277 -4.12453 174.679 -3.69497 173.989 -3.52541C173.299 -3.35585 172.57 -3.45938 171.955 -3.81439L155.919 -13.092L159.693 -19.031Z" stroke="#45413C" stroke-width="0.464981" stroke-linecap="round" stroke-linejoin="round"/>
<path d="M81.4725 7.83976C65.7926 7.83976 53.0815 -4.87133 53.0815 -20.5513C53.0815 -36.2312 65.7926 -48.9423 81.4725 -48.9423C97.1524 -48.9423 109.864 -36.2312 109.864 -20.5513C109.864 -4.87133 97.1524 7.83976 81.4725 7.83976Z" fill="#F2DFC2" stroke="#F2DFC2" stroke-width="0.464981" stroke-miterlimit="10"/>
<path d="M98.9496 2.82857C99.6341 2.82857 100.291 2.55669 100.775 2.07272C101.259 1.58876 101.531 0.932343 101.531 0.247822V-17.8181C101.531 -18.1571 101.464 -18.4928 101.335 -18.8061C101.205 -19.1193 101.015 -19.4039 100.775 -19.6437C100.535 -19.8834 100.251 -20.0735 99.9375 -20.2032C99.6243 -20.3329 99.2886 -20.3996 98.9496 -20.3995H62.8163C62.4774 -20.3995 62.1419 -20.3328 61.8288 -20.2031C61.5158 -20.0734 61.2313 -19.8833 60.9917 -19.6436C60.7521 -19.404 60.5621 -19.1195 60.4325 -18.8063C60.3029 -18.4932 60.2362 -18.1577 60.2363 -17.8188V0.247822C60.2362 0.586756 60.3029 0.922388 60.4325 1.23554C60.5622 1.54869 60.7523 1.83323 60.992 2.07289C61.2316 2.31255 61.5162 2.50264 61.8293 2.6323C62.1425 2.76196 62.4781 2.82866 62.817 2.82857H98.9496Z" fill="white" stroke="#45413C" stroke-width="0.464981" stroke-linecap="round" stroke-linejoin="round"/>
<path d="M65.3983 -20.3995H96.3687V2.82857H65.3983V-20.3995Z" fill="#80DDFF"/>
<path d="M65.3983 -20.3995H96.3687V2.82857H65.3983V-20.3995Z" stroke="#45413C" stroke-width="0.464981" stroke-linecap="round" stroke-linejoin="round"/>
<path d="M79.7745 -14.9041C79.9418 -14.9478 80.0899 -15.0458 80.1954 -15.1828C80.301 -15.3197 80.3582 -15.4878 80.3579 -15.6607V-17.1136H83.2737V-15.6607C83.2734 -15.4877 83.3307 -15.3195 83.4364 -15.1826C83.5422 -15.0456 83.6904 -14.9477 83.8578 -14.9041C85.5935 -14.4493 87.1294 -13.432 88.2254 -12.0113C89.3214 -10.5907 89.9156 -8.84685 89.915 -7.05259V-0.187637C89.915 -0.0851078 89.8948 0.0164185 89.8556 0.111143C89.8164 0.205868 89.7589 0.291937 89.6864 0.364437C89.6139 0.436937 89.5278 0.494446 89.4331 0.533682C89.3383 0.572918 89.2368 0.593113 89.1343 0.593113H74.4994C74.2924 0.593113 74.0938 0.510857 73.9474 0.364437C73.8009 0.218018 73.7187 0.0194302 73.7187 -0.187637V-7.05259C73.7179 -8.84669 74.3119 -10.5904 75.4076 -12.0111C76.5033 -13.4317 78.039 -14.4491 79.7745 -14.9041Z" fill="#D18660" stroke="#45413C" stroke-width="0.464981" stroke-linecap="round" stroke-linejoin="round"/>
<path d="M76.2542 -12.9497C76.8355 -13.4997 77.4958 -13.9597 78.2131 -14.3146C78.2131 -11.4144 78.7696 -8.42344 81.8167 -8.40428C84.8637 -8.42202 85.423 -11.4144 85.4202 -14.3146C86.1375 -13.9597 86.7978 -13.4997 87.3792 -12.9497C87.9342 -10.645 88.2309 -8.11539 87.5098 -5.89664C87.2181 -4.99593 86.7659 -5.14357 86.7659 -3.52315V0.558764L86.7049 0.594964H76.9284L76.8674 0.558764V-3.52315C76.8674 -5.14357 76.4153 -4.99593 76.1236 -5.89664C75.4046 -8.11539 75.6991 -10.645 76.2542 -12.9497Z" fill="white" stroke="#45413C" stroke-width="0.464981" stroke-linecap="round" stroke-linejoin="round"/>
<path d="M76.2542 -12.9497C76.8355 -13.4997 77.4958 -13.9597 78.2131 -14.3146C78.2131 -11.4144 78.7696 -8.42344 81.8167 -8.40428C84.8637 -8.42202 85.423 -11.4144 85.4202 -14.3146C86.1375 -13.9597 86.7978 -13.4997 87.3792 -12.9497C87.9342 -10.645 88.2309 -8.11539 87.5098 -5.89664C87.2181 -4.99593 86.7659 -5.14357 86.7659 -3.52315V0.558764L86.7049 0.594964H76.9284L76.8674 0.558764V-3.52315C76.8674 -5.14357 76.4153 -4.99593 76.1236 -5.89664C75.4046 -8.11539 75.6991 -10.645 76.2542 -12.9497Z" stroke="#45413C" stroke-width="0.464981" stroke-linecap="round" stroke-linejoin="round"/>
<path d="M-2.97168 162.524C17.3987 162.524 33.9121 146.011 33.9121 125.641C33.9121 105.27 17.3987 88.7568 -2.97168 88.7568C-23.342 88.7568 -39.8555 105.27 -39.8555 125.641C-39.8555 146.011 -23.342 162.524 -2.97168 162.524Z" fill="#F2DFC2" stroke="#F2DFC2" stroke-width="0.437012" stroke-miterlimit="10"/>
<path d="M-6.0313 139.462V137.039C-6.05467 134.801 -5.63388 132.579 -4.79328 130.504C-3.95269 128.429 -2.70897 126.541 -1.13407 124.95C0.440825 123.358 2.31564 122.095 4.38192 121.233C6.4482 120.37 8.66493 119.927 10.9039 119.927C13.1428 119.927 15.3596 120.37 17.4259 121.233C19.4921 122.095 21.3669 123.358 22.9418 124.95C24.5167 126.541 25.7605 128.429 26.6011 130.504C27.4417 132.579 27.8624 134.801 27.8391 137.039V139.462C27.8391 158.543 7.03662 147.499 4.10436 144.567L6.18092 138.595C11.9735 141.251 21.2802 145.824 21.2802 141.49V155.46H0.596713L0.562596 142.849" fill="#E5F8FF"/>
<path d="M-6.0313 140.428V137.039C-6.05467 134.801 -5.63388 132.579 -4.79328 130.504C-3.95269 128.429 -2.70897 126.541 -1.13407 124.95C0.440825 123.358 2.31564 122.095 4.38192 121.233C6.4482 120.37 8.66493 119.927 10.9039 119.927C13.1428 119.927 15.3596 120.37 17.4259 121.233C19.4921 122.095 21.3669 123.358 22.9418 124.95C24.5167 126.541 25.7605 128.429 26.6011 130.504C27.4417 132.579 27.8624 134.801 27.8391 137.039V139.462C27.8391 139.769 27.8335 140.07 27.8225 140.364H27.8133C27.6143 136.007 25.7411 131.895 22.5843 128.885C19.4274 125.875 15.2306 124.2 10.8689 124.209C6.50719 124.218 2.3172 125.91 -0.827455 128.932C-3.97211 131.955 -5.82869 136.075 -6.0101 140.433" fill="white"/>
<path d="M5.82861 125.018L10.8374 135.293L15.9901 125.023" stroke="#45413C" stroke-width="0.437012" stroke-linecap="round" stroke-linejoin="round"/>
<path d="M-6.0313 139.462V137.039C-6.05467 134.801 -5.63388 132.579 -4.79328 130.504C-3.95269 128.429 -2.70897 126.541 -1.13407 124.95C0.440825 123.358 2.31564 122.095 4.38192 121.233C6.4482 120.37 8.66493 119.927 10.9039 119.927C13.1428 119.927 15.3596 120.37 17.4259 121.233C19.4921 122.095 21.3669 123.358 22.9418 124.95C24.5167 126.541 25.7605 128.429 26.6011 130.504C27.4417 132.579 27.8624 134.801 27.8391 137.039V139.462C27.8391 158.543 7.03662 147.499 4.10436 144.567L6.18092 138.595C11.9735 141.251 21.2802 145.824 21.2802 141.49V155.46H0.596712L0.542311 135.107" stroke="#45413C" stroke-width="0.437012" stroke-linecap="round" stroke-linejoin="round"/>
<path d="M17.3369 128.509C17.4151 128.545 17.5014 128.559 17.5868 128.549C17.6723 128.54 17.7536 128.508 17.8224 128.457C17.8912 128.405 17.9449 128.336 17.9779 128.257C18.0109 128.177 18.022 128.091 18.01 128.006L17.1645 122.09C17.0385 121.39 16.7675 120.724 16.3687 120.135C15.9699 119.546 15.4523 119.047 14.8491 118.669H6.95779C6.35454 119.047 5.83685 119.546 5.43795 120.135C5.03905 120.724 4.76775 121.39 4.64149 122.09L3.79685 128.006C3.78464 128.091 3.79555 128.177 3.82842 128.257C3.86129 128.336 3.91492 128.405 3.98367 128.457C4.05243 128.508 4.13377 128.54 4.21918 128.549C4.30458 128.559 4.39089 128.545 4.46906 128.509L10.9044 125.584L17.3369 128.509Z" fill="white" stroke="#45413C" stroke-width="0.437012" stroke-linecap="round" stroke-linejoin="round"/>
<path d="M7.07837 117.029V122.387C7.07836 122.561 7.12143 122.734 7.20377 122.888C7.28612 123.042 7.40519 123.174 7.55048 123.271L10.9023 125.484L14.2532 123.271C14.3986 123.174 14.5178 123.042 14.6003 122.888C14.6828 122.734 14.7261 122.561 14.7262 122.387V117.029H7.07837Z" fill="#FFDA8F"/>
<path d="M7.07837 117.029V120.325C9.57493 121.058 12.2297 121.058 14.7262 120.325V117.029H7.07837Z" fill="#FFBE3D"/>
<path d="M7.07837 117.029V122.387C7.07836 122.561 7.12143 122.734 7.20377 122.888C7.28612 123.042 7.40519 123.174 7.55048 123.271L10.9023 125.484L14.2532 123.271C14.3986 123.174 14.5178 123.042 14.6003 122.888C14.6828 122.734 14.7261 122.561 14.7262 122.387V117.029H7.07837Z" stroke="#45413C" stroke-width="0.437012" stroke-linecap="round" stroke-linejoin="round"/>
<path d="M21.831 105.557V102.825C21.831 99.9269 20.6798 97.1476 18.6306 95.0985C16.5814 93.0493 13.8021 91.8981 10.9041 91.8981C8.00618 91.8981 5.22689 93.0493 3.17772 95.0985C1.12854 97.1476 -0.0226758 99.9269 -0.0226758 102.825V105.557C-0.313378 105.551 -0.602352 105.603 -0.872665 105.71C-1.14298 105.817 -1.38919 105.977 -1.5969 106.181C-1.8046 106.384 -1.96961 106.627 -2.08226 106.895C-2.19491 107.163 -2.25293 107.451 -2.25293 107.742C-2.25293 108.033 -2.19491 108.321 -2.08226 108.589C-1.96961 108.857 -1.8046 109.1 -1.5969 109.303C-1.38919 109.507 -1.14298 109.667 -0.872665 109.774C-0.602352 109.881 -0.313378 109.933 -0.0226758 109.927C0.022507 109.927 0.0695341 109.917 0.111028 109.913C0.496827 112.499 1.79858 114.861 3.77928 116.568C5.75998 118.275 8.2879 119.214 10.9028 119.214C13.5176 119.214 16.0455 118.275 18.0262 116.568C20.0069 114.861 21.3087 112.499 21.6945 109.913C21.7406 109.913 21.7867 109.927 21.8291 109.927C22.4008 109.915 22.9452 109.68 23.3453 109.271C23.7455 108.863 23.9696 108.314 23.9696 107.742C23.9696 107.17 23.7455 106.621 23.3453 106.213C22.9452 105.804 22.4008 105.569 21.8291 105.557H21.831Z" fill="#FFDA8F" stroke="#45413C" stroke-width="0.437012" stroke-linecap="round" stroke-linejoin="round"/>
<path d="M4.61904 111.565C5.37326 111.565 5.98466 110.954 5.98466 110.199C5.98466 109.445 5.37326 108.834 4.61904 108.834C3.86483 108.834 3.25342 109.445 3.25342 110.199C3.25342 110.954 3.86483 111.565 4.61904 111.565Z" fill="#FFBE3D"/>
<path d="M17.1845 111.565C17.9387 111.565 18.5501 110.954 18.5501 110.199C18.5501 109.445 17.9387 108.834 17.1845 108.834C16.4303 108.834 15.8188 109.445 15.8188 110.199C15.8188 110.954 16.4303 111.565 17.1845 111.565Z" fill="#FFBE3D"/>
<path d="M14.1765 112.974C13.2965 113.823 12.1216 114.297 10.8989 114.297C9.67629 114.297 8.50133 113.823 7.62134 112.974" stroke="#45413C" stroke-width="0.437012" stroke-linecap="round" stroke-linejoin="round"/>
<path d="M8.16873 106.649C8.03364 106.326 7.806 106.05 7.51445 105.855C7.22289 105.661 6.88044 105.558 6.53016 105.558C6.17989 105.558 5.83744 105.661 5.54589 105.855C5.25433 106.05 5.02669 106.326 4.8916 106.649" stroke="#45413C" stroke-width="0.437012" stroke-linecap="round" stroke-linejoin="round"/>
<path d="M16.9113 106.649C16.7764 106.325 16.5488 106.049 16.2571 105.855C15.9654 105.66 15.6228 105.557 15.2723 105.557C14.9218 105.557 14.5792 105.66 14.2875 105.855C13.9959 106.049 13.7683 106.325 13.6333 106.649" stroke="#45413C" stroke-width="0.437012" stroke-linecap="round" stroke-linejoin="round"/>
<path d="M7.26182 108.834H3.69701C3.35174 108.834 3.00984 108.767 2.69083 108.634C2.37183 108.502 2.08197 108.309 1.83783 108.065C1.59369 107.821 1.40005 107.531 1.26798 107.212C1.13591 106.893 1.06799 106.551 1.06812 106.205V103.918C1.06812 103.628 1.18311 103.35 1.38783 103.145C1.59255 102.941 1.87024 102.825 2.15988 102.825H8.79896C8.98383 102.825 9.16659 102.864 9.33532 102.94C9.50404 103.016 9.65493 103.126 9.77814 103.264C9.90136 103.401 9.99412 103.564 10.0504 103.74C10.1066 103.916 10.1251 104.102 10.1046 104.286L9.87043 106.499C9.79821 107.14 9.49243 107.733 9.01135 108.164C8.53028 108.595 7.90755 108.833 7.26182 108.834V108.834Z" stroke="#45413C" stroke-width="0.437012" stroke-linecap="round" stroke-linejoin="round"/>
<path d="M14.5466 108.834H18.1095C18.4548 108.834 18.7968 108.767 19.1158 108.635C19.4349 108.502 19.7248 108.309 19.969 108.065C20.2132 107.821 20.407 107.531 20.5391 107.212C20.6713 106.893 20.7393 106.551 20.7393 106.205V103.918C20.7391 103.628 20.6239 103.35 20.419 103.145C20.2142 102.941 19.9364 102.825 19.6467 102.825H13.0076C12.8226 102.825 12.6398 102.864 12.4709 102.94C12.3021 103.015 12.1511 103.125 12.0278 103.263C11.9045 103.401 11.8116 103.563 11.7553 103.74C11.699 103.916 11.6805 104.102 11.701 104.286L11.9361 106.499C12.0082 107.141 12.3142 107.734 12.7957 108.165C13.2772 108.595 13.9004 108.834 14.5466 108.834V108.834Z" stroke="#45413C" stroke-width="0.437012" stroke-linecap="round" stroke-linejoin="round"/>
<path d="M10.0625 105.01H11.7411" stroke="#45413C" stroke-width="0.437012" stroke-linecap="round" stroke-linejoin="round"/>
<path d="M10.9025 88.2854C2.11404 88.2854 -2.20874 93.794 -2.20874 99.7572V106.649C-1.11606 106.649 -0.570176 105.557 0.522506 106.103C1.39192 104.203 2.15536 102.257 2.8093 100.273C2.91875 99.8375 3.19317 99.462 3.57452 99.2255C3.95586 98.9891 4.41423 98.9102 4.85266 99.0057C6.84636 99.3825 8.87402 99.5497 10.9025 99.5045C12.9307 99.5497 14.9581 99.3825 16.9515 99.0057C17.3899 98.9102 17.8483 98.9891 18.2296 99.2255C18.611 99.462 18.8854 99.8375 18.9948 100.273C19.6487 102.257 20.4121 104.205 21.2816 106.105C22.3743 105.559 22.9211 106.651 24.0129 106.651V99.7572C24.0129 93.794 19.691 88.2854 10.9025 88.2854Z" fill="#614B44"/>
<path d="M10.9025 88.2854C2.11404 88.2854 -2.20874 93.794 -2.20874 99.7572V103.918C-2.20874 97.9545 2.11404 92.4459 10.9025 92.4459C19.691 92.4459 24.0129 97.9545 24.0129 103.918V99.7572C24.0129 93.794 19.691 88.2854 10.9025 88.2854Z" fill="#947063"/>
<path d="M10.9025 88.2854C2.11404 88.2854 -2.20874 93.794 -2.20874 99.7572V106.649C-1.11606 106.649 -0.570176 105.557 0.522506 106.103C1.39192 104.203 2.15536 102.257 2.8093 100.273C2.91875 99.8375 3.19317 99.462 3.57452 99.2255C3.95586 98.9891 4.41423 98.9102 4.85266 99.0057C6.84636 99.3825 8.87402 99.5497 10.9025 99.5045C12.9307 99.5497 14.9581 99.3825 16.9515 99.0057C17.3899 98.9102 17.8483 98.9891 18.2296 99.2255C18.611 99.462 18.8854 99.8375 18.9948 100.273C19.6487 102.257 20.4121 104.205 21.2816 106.105C22.3743 105.559 22.9211 106.651 24.0129 106.651V99.7572C24.0129 93.794 19.691 88.2854 10.9025 88.2854Z" stroke="#45413C" stroke-width="0.437012" stroke-linecap="round" stroke-linejoin="round"/>
<path d="M-0.569031 110.915H-2.20759C-2.35246 110.915 -2.4914 110.858 -2.59392 110.756C-2.69643 110.653 -2.75415 110.514 -2.75439 110.37V102.721C-2.75415 102.576 -2.69643 102.437 -2.59392 102.335C-2.4914 102.232 -2.35246 102.175 -2.20759 102.175H-0.569031C-0.425504 102.175 -0.283361 102.203 -0.150736 102.258C-0.0181105 102.313 0.102393 102.393 0.203882 102.495C0.305372 102.596 0.385854 102.717 0.440724 102.849C0.495593 102.982 0.523774 103.124 0.523652 103.268V109.823C0.523652 109.966 0.49539 110.108 0.440477 110.241C0.385565 110.374 0.305077 110.494 0.203612 110.595C0.102147 110.697 -0.0183094 110.777 -0.15088 110.832C-0.28345 110.887 -0.425538 110.915 -0.569031 110.915Z" fill="#656769" stroke="#45413C" stroke-width="0.437012" stroke-linecap="round" stroke-linejoin="round"/>
<path d="M22.3772 110.915H24.0157C24.0875 110.916 24.1586 110.902 24.2249 110.874C24.2913 110.847 24.3516 110.807 24.4023 110.756C24.4531 110.705 24.4934 110.645 24.5209 110.579C24.5484 110.512 24.5626 110.441 24.5626 110.37V102.721C24.5626 102.649 24.5484 102.578 24.5209 102.512C24.4934 102.445 24.4531 102.385 24.4023 102.334C24.3516 102.284 24.2913 102.244 24.2249 102.216C24.1586 102.189 24.0875 102.175 24.0157 102.175H22.3772C22.2335 102.175 22.0911 102.203 21.9582 102.257C21.8253 102.312 21.7045 102.392 21.6028 102.494C21.501 102.595 21.4203 102.716 21.3652 102.849C21.3101 102.982 21.2817 103.124 21.2817 103.268V109.823C21.2819 109.966 21.3103 110.109 21.3654 110.241C21.4205 110.374 21.5013 110.495 21.603 110.596C21.7048 110.698 21.8255 110.778 21.9583 110.833C22.0912 110.888 22.2335 110.916 22.3772 110.915Z" fill="#656769" stroke="#45413C" stroke-width="0.437012" stroke-linecap="round" stroke-linejoin="round"/>
<path d="M27.8396 108.73C27.8396 109.02 27.7244 109.298 27.5195 109.503C27.3146 109.708 27.0367 109.823 26.7469 109.823H24.5615V103.268H26.7469C27.0367 103.268 27.3146 103.383 27.5195 103.588C27.7244 103.793 27.8396 104.071 27.8396 104.361V108.73Z" fill="white" stroke="#45413C" stroke-width="0.437012" stroke-linecap="round" stroke-linejoin="round"/>
<path d="M25.654 103.268C25.5678 99.413 23.9759 95.7451 21.2192 93.0493C18.4624 90.3536 14.7599 88.8441 10.9042 88.8441C7.0484 88.8441 3.34587 90.3536 0.589129 93.0493C-2.16761 95.7451 -3.75946 99.413 -3.84568 103.268V100.537C-3.88962 98.5718 -3.54059 96.6181 -2.81908 94.7901C-2.09758 92.9621 -1.01814 91.2967 0.355855 89.8916C1.72985 88.4865 3.37072 87.3701 5.18212 86.6079C6.99351 85.8457 8.93893 85.4531 10.9042 85.4531C12.8694 85.4531 14.8148 85.8457 16.6262 86.6079C18.4376 87.3701 20.0785 88.4865 21.4525 89.8916C22.8265 91.2967 23.9059 92.9621 24.6274 94.7901C25.3489 96.6181 25.6979 98.5718 25.654 100.537V103.268Z" fill="white" stroke="#45413C" stroke-width="0.437012" stroke-linecap="round" stroke-linejoin="round"/>
<path d="M5.98776 117.471H3.8024C3.65895 117.471 3.51688 117.443 3.38432 117.388C3.25175 117.333 3.13129 117.253 3.02981 117.151C2.92833 117.05 2.84783 116.93 2.79291 116.797C2.73799 116.665 2.70972 116.523 2.70972 116.379C2.7096 116.236 2.73778 116.093 2.79265 115.961C2.84752 115.828 2.928 115.708 3.02949 115.606C3.13098 115.505 3.25148 115.424 3.38411 115.369C3.51673 115.314 3.65887 115.286 3.8024 115.286H5.98776C6.27756 115.286 6.55549 115.402 6.76041 115.606C6.96532 115.811 7.08045 116.089 7.08045 116.379C7.0802 116.669 6.96497 116.946 6.76008 117.151C6.55519 117.356 6.2774 117.471 5.98776 117.471Z" fill="#656769" stroke="#45413C" stroke-width="0.437012" stroke-linecap="round" stroke-linejoin="round"/>
<path d="M2.70874 116.379H0.523374C-0.0505548 116.379 -0.618865 116.266 -1.14909 116.046C-1.67932 115.827 -2.16109 115.505 -2.56687 115.099C-2.97266 114.693 -3.29452 114.211 -3.51407 113.681C-3.73361 113.151 -3.84656 112.582 -3.84644 112.008V109.823" stroke="#45413C" stroke-width="0.437012" stroke-linecap="round" stroke-linejoin="round"/>
</g>
</g>
<defs>
<clipPath id="clip0_127_23058">
<rect width="179" height="133" fill="white"/>
</clipPath>
<clipPath id="clip1_127_23058">
<rect width="179" height="179" fill="white" transform="translate(0 -46)"/>
</clipPath>
</defs>
</svg>
